<svg width="610" height="356" viewBox="0 0 610 356" fill="none" xmlns="http://www.w3.org/2000/svg">
<path d="M533.745 39.4466C543.856 39.4463 553.553 43.6018 560.703 50.9989C567.853 58.396 571.87 68.4288 571.87 78.8902L571.874 276.113C571.874 286.575 567.858 296.607 560.708 304.005C553.558 311.402 543.861 315.558 533.75 315.559L76.2554 315.571C66.1442 315.571 56.4469 311.415 49.2971 304.018C42.1472 296.621 38.1303 286.588 38.1301 276.127L38.1261 78.9039C38.1259 68.4426 42.1424 58.4096 49.292 51.0121C56.4416 43.6146 66.1386 39.4586 76.2499 39.4583L533.745 39.4466ZM76.2491 0.0137512C56.0266 0.0142725 36.6325 8.32628 22.3333 23.1212C8.03412 37.9162 0.00115831 57.9822 0.0015764 78.9049L0.00551741 276.128C0.00593549 297.051 8.0397 317.116 22.3395 331.91C36.6393 346.705 56.0337 355.016 76.2562 355.015L533.751 355.003C553.973 355.003 573.368 346.691 587.667 331.896C601.966 317.101 609.999 297.035 609.998 276.112L609.994 78.8892C609.994 57.9665 601.96 37.9009 587.661 23.1067C573.361 8.31245 553.966 0.00143796 533.744 0.0019592L76.2491 0.0137512Z" fill="black"/>
<path d="M504.33 248.713C504.33 246.097 505.334 243.589 507.122 241.74C508.909 239.89 511.333 238.851 513.861 238.851L532.923 238.851C535.451 238.851 537.876 239.89 539.663 241.739C541.45 243.588 542.455 246.096 542.455 248.712L542.455 268.434C542.455 271.049 541.451 273.558 539.664 275.407C537.876 277.256 535.452 278.295 532.924 278.295L513.862 278.296C511.334 278.296 508.91 277.257 507.122 275.408C505.335 273.559 504.331 271.05 504.331 268.435L504.33 248.713ZM463.411 166.942C463.411 164.327 464.415 161.819 466.202 159.969C467.99 158.12 470.414 157.081 472.942 157.081L530.129 157.079C532.656 157.079 535.081 158.118 536.868 159.967C538.656 161.816 539.66 164.324 539.66 166.94L539.66 186.662C539.66 189.277 538.656 191.786 536.869 193.635C535.081 195.484 532.657 196.523 530.129 196.524L472.942 196.525C470.415 196.525 467.99 195.486 466.203 193.637C464.415 191.788 463.411 189.28 463.411 186.664L463.411 166.942ZM428.081 248.715C428.081 246.1 429.085 243.592 430.873 241.742C432.66 239.893 435.084 238.854 437.612 238.854L456.674 238.853C459.202 238.853 461.626 239.892 463.414 241.741C465.201 243.59 466.206 246.099 466.206 248.714L466.206 268.436C466.206 271.052 465.202 273.56 463.414 275.409C461.627 277.259 459.203 278.298 456.675 278.298L437.613 278.298C435.085 278.298 432.661 277.259 430.873 275.41C429.086 273.561 428.081 271.053 428.081 268.437L428.081 248.715ZM237.457 169.832C237.457 167.216 238.461 164.708 240.248 162.859C242.036 161.009 244.46 159.97 246.988 159.97L266.05 159.97C268.578 159.97 271.002 161.008 272.79 162.858C274.577 164.707 275.582 167.215 275.582 169.83L275.582 189.553C275.582 192.168 274.578 194.676 272.79 196.526C271.003 198.375 268.579 199.414 266.051 199.414L246.989 199.415C244.461 199.415 242.037 198.376 240.249 196.527C238.462 194.677 237.457 192.169 237.457 189.554L237.457 169.832ZM161.208 169.834C161.208 167.219 162.212 164.71 163.999 162.861C165.787 161.012 168.211 159.973 170.739 159.973L189.801 159.972C192.329 159.972 194.753 161.011 196.541 162.86C198.328 164.709 199.332 167.217 199.332 169.833L199.333 189.555C199.333 192.17 198.329 194.679 196.541 196.528C194.754 198.377 192.33 199.416 189.802 199.417L170.74 199.417C168.212 199.417 165.787 198.378 164 196.529C162.212 194.68 161.208 192.172 161.208 189.556L161.208 169.834ZM84.9588 169.836C84.9587 167.221 85.9629 164.713 87.7503 162.863C89.5377 161.014 91.962 159.975 94.4898 159.975L113.552 159.974C116.08 159.974 118.504 161.013 120.292 162.862C122.079 164.712 123.083 167.22 123.083 169.835L123.084 189.557C123.084 192.173 122.08 194.681 120.292 196.53C118.505 198.38 116.081 199.419 113.553 199.419L94.4904 199.419C91.9626 199.419 89.5383 198.381 87.7508 196.531C85.9634 194.682 84.9592 192.174 84.9591 189.559L84.9588 169.836ZM504.328 90.9344C504.328 88.3191 505.332 85.8108 507.119 83.9615C508.906 82.1121 511.331 81.0731 513.859 81.073L532.921 81.0724C535.449 81.0724 537.873 82.1112 539.66 83.9605C541.448 85.8098 542.452 88.318 542.452 90.9333L542.452 110.656C542.453 113.271 541.448 115.779 539.661 117.629C537.874 119.478 535.449 120.517 532.921 120.517L513.859 120.518C511.331 120.518 508.907 119.479 507.12 117.63C505.332 115.78 504.328 113.272 504.328 110.657L504.328 90.9344ZM428.078 90.9367C428.078 88.3214 429.083 85.8131 430.87 83.9638C432.657 82.1144 435.082 81.0754 437.609 81.0753L456.672 81.0747C459.2 81.0746 461.624 82.1135 463.411 83.9628C465.199 85.812 466.203 88.3202 466.203 90.9356L466.203 110.658C466.203 113.273 465.199 115.781 463.412 117.631C461.624 119.48 459.2 120.519 456.672 120.519L437.61 120.52C435.082 120.52 432.658 119.481 430.871 117.632C429.083 115.783 428.079 113.274 428.079 110.659L428.078 90.9367ZM351.829 90.939C351.829 88.3237 352.833 85.8154 354.621 83.966C356.408 82.1167 358.833 81.0777 361.36 81.0776L380.423 81.077C382.95 81.0769 385.375 82.1158 387.162 83.9651C388.95 85.8143 389.954 88.3225 389.954 90.9379L389.954 110.66C389.954 113.276 388.95 115.784 387.163 117.633C385.375 119.483 382.951 120.522 380.423 120.522L361.361 120.522C358.833 120.522 356.409 119.483 354.621 117.634C352.834 115.785 351.83 113.277 351.83 110.661L351.829 90.939ZM275.58 90.9413C275.58 88.326 276.584 85.8177 278.372 83.9683C280.159 82.119 282.583 81.08 285.111 81.0799L304.173 81.0793C306.701 81.0792 309.126 82.1181 310.913 83.9674C312.701 85.8166 313.705 88.3248 313.705 90.9402L313.705 110.662C313.705 113.278 312.701 115.786 310.914 117.635C309.126 119.485 306.702 120.524 304.174 120.524L285.112 120.524C282.584 120.525 280.16 119.486 278.372 117.636C276.585 115.787 275.581 113.279 275.581 110.664L275.58 90.9413ZM199.331 90.9436C199.331 88.3283 200.335 85.82 202.123 83.9706C203.91 82.1213 206.334 81.0822 208.862 81.0822L227.924 81.0816C230.452 81.0815 232.876 82.1204 234.664 83.9697C236.451 85.8189 237.456 88.3271 237.456 90.9425L237.456 110.665C237.456 113.28 236.452 115.788 234.665 117.638C232.877 119.487 230.453 120.526 227.925 120.526L208.863 120.527C206.335 120.527 203.911 119.488 202.123 117.639C200.336 115.789 199.332 113.281 199.331 110.666L199.331 90.9436ZM84.9575 90.947C84.9574 88.3317 85.9616 85.8234 87.749 83.9741C89.5364 82.1247 91.9606 81.0857 94.4885 81.0856L151.675 81.0839C154.203 81.0838 156.627 82.1227 158.415 83.9719C160.202 85.8212 161.207 88.3294 161.207 90.9447L161.207 110.667C161.207 113.282 160.203 115.791 158.415 117.64C156.628 119.489 154.204 120.528 151.676 120.528L94.4891 120.53C91.9613 120.53 89.537 119.491 87.7495 117.642C85.9621 115.793 84.9579 113.285 84.9578 110.669L84.9575 90.947ZM84.9601 248.725C84.9601 246.11 85.9642 243.602 87.7516 241.752C89.539 239.903 91.9633 238.864 94.4911 238.864L113.553 238.863C116.081 238.863 118.505 239.902 120.293 241.751C122.08 243.601 123.085 246.109 123.085 248.724L123.085 268.447C123.085 271.062 122.081 273.57 120.293 275.42C118.506 277.269 116.082 278.308 113.554 278.308L94.4917 278.309C91.9639 278.309 89.5396 277.27 87.7521 275.421C85.9647 273.571 84.9605 271.063 84.9604 268.448L84.9601 248.725ZM161.209 248.723C161.209 246.108 162.213 243.6 164.001 241.75C165.788 239.901 168.212 238.862 170.74 238.862L380.425 238.855C382.953 238.855 385.377 239.894 387.165 241.743C388.952 243.593 389.956 246.101 389.957 248.716L389.957 268.439C389.957 271.054 388.953 273.562 387.165 275.412C385.378 277.261 382.954 278.3 380.426 278.3L170.741 278.306C168.213 278.306 165.789 277.267 164.001 275.418C162.214 273.569 161.21 271.061 161.21 268.445L161.209 248.723Z" fill="black"/>
<path d="M319.284 162.86C317.496 164.709 316.492 167.217 316.492 169.833L316.492 189.555C316.492 192.17 317.497 194.678 319.284 196.528C321.072 198.377 323.496 199.416 326.024 199.416L345.086 199.415C347.614 199.415 350.038 198.376 351.825 196.527C353.613 194.677 353.76 189.276 353.76 186.661L353.76 166.939C353.76 164.323 353.612 164.708 351.825 162.859C350.037 161.009 347.613 159.97 345.085 159.971L326.023 159.971C323.495 159.971 321.071 161.01 319.284 162.86Z" fill="black"/>
<path d="M353.76 162.859C351.973 164.709 353.76 164.323 353.76 166.939L353.76 186.661C353.76 189.276 351.973 194.678 353.761 196.528C355.548 198.377 357.972 199.416 360.5 199.416L379.562 199.415C382.09 199.415 384.515 198.376 386.302 196.527C388.089 194.677 387.156 195.062 387.156 192.446L387.156 172.724C387.156 170.109 388.089 164.708 386.301 162.858C384.514 161.009 382.09 159.97 379.562 159.97L360.5 159.971C357.972 159.971 355.547 161.01 353.76 162.859Z" fill="black"/>
<path d="M389.948 162.863C388.16 164.712 387.156 170.109 387.156 172.724L387.156 192.446C387.156 195.062 388.161 194.681 389.948 196.531C391.736 198.38 394.16 199.419 396.688 199.419L415.75 199.418C418.278 199.418 420.702 198.379 422.49 196.53C424.277 194.68 425.281 192.172 425.281 189.557L425.281 169.834C425.281 167.219 424.277 164.711 422.489 162.862C420.702 161.012 418.277 159.973 415.749 159.974L396.687 159.974C394.159 159.974 391.735 161.013 389.948 162.863Z" fill="black"/>
<path d="M354.614 126.306C352.827 128.156 351.823 130.664 351.823 133.279L351.823 153.002C351.823 155.617 352.827 158.125 354.615 159.975C356.402 161.824 357.972 159.971 360.5 159.971L379.562 159.97C382.09 159.97 385.369 161.823 387.156 159.974C388.943 158.124 389.948 155.616 389.947 153.001L389.947 133.278C389.947 130.663 388.943 128.155 387.155 126.305C385.368 124.456 382.944 123.417 380.416 123.417L361.354 123.418C358.826 123.418 356.402 124.457 354.614 126.306Z" fill="black"/>
<path d="M336.879 173.322V187.466C336.879 189.904 335.773 191.122 333.562 191.122C333.086 191.122 332.645 191.052 332.238 190.911V189.177C332.488 189.24 332.816 189.271 333.223 189.271C333.707 189.271 334.074 189.138 334.324 188.872C334.582 188.615 334.711 188.161 334.711 187.513V173.322H336.879ZM334.488 169.958C334.488 169.615 334.594 169.322 334.805 169.079C335.023 168.829 335.34 168.704 335.754 168.704C336.176 168.704 336.496 168.826 336.715 169.068C336.934 169.31 337.043 169.607 337.043 169.958C337.043 170.31 336.934 170.603 336.715 170.837C336.496 171.072 336.176 171.189 335.754 171.189C335.332 171.189 335.016 171.072 334.805 170.837C334.594 170.603 334.488 170.31 334.488 169.958Z" fill="#C6C6C6"/>
<path d="M406.996 186.001H404.828V168.001H406.996V186.001Z" fill="#C6C6C6"/>
<path d="M370.996 148.001H368.828V135.322H370.996V148.001ZM368.652 131.958C368.652 131.607 368.758 131.31 368.969 131.068C369.188 130.826 369.508 130.704 369.93 130.704C370.352 130.704 370.672 130.826 370.891 131.068C371.109 131.31 371.219 131.607 371.219 131.958C371.219 132.31 371.109 132.603 370.891 132.837C370.672 133.072 370.352 133.189 369.93 133.189C369.508 133.189 369.188 133.072 368.969 132.837C368.758 132.603 368.652 132.31 368.652 131.958Z" fill="#C6C6C6"/>
<path d="M372.18 180.13L370.82 181.548V186.001H368.652V168.001H370.82V178.888L371.98 177.494L375.93 173.322H378.566L373.633 178.619L379.141 186.001H376.598L372.18 180.13Z" fill="#C6C6C6"/>
</svg>
