<svg width="1105" height="767" viewBox="0 0 1105 767" fill="none" xmlns="http://www.w3.org/2000/svg">
<g clip-path="url(#clip0)">
<path d="M976.838 506.652C971.486 556.989 960.365 597.403 945.1 629.635C924.788 672.58 890.043 689.883 859.005 707.989C850.037 713.211 840.712 717.662 831.116 721.301C774.638 742.818 711.425 737.11 661.771 725.749C626.945 717.774 591.593 712.868 556.055 711.077C545.919 710.575 535.773 710.327 525.616 710.33C509.956 710.353 227.967 716.228 159.311 563.645C142.36 526.006 130.741 480.028 126.567 423.983C114.756 265.535 179.674 161.471 263.413 93.4521C421.82 -35.2171 638.95 -29.821 795.021 102.237C898.981 190.202 996.318 323.331 976.838 506.652Z" fill="#3F3D56"/>
<path d="M956.763 603.878C936.45 646.823 924.841 689.625 893.804 707.73C884.835 712.953 875.511 717.403 865.915 721.042C809.436 742.56 746.224 736.851 696.57 725.491C661.743 717.516 626.392 712.609 590.853 710.819C580.717 710.317 570.571 710.068 560.415 710.072C544.754 710.094 529.096 710.733 513.442 711.989C411.707 720.195 255.656 704.821 187 552.237L358.783 187L422.716 367.187L443.12 424.704L499.355 339.995L528.392 296.259L660.627 462.678L698.002 372.071L956.763 603.878Z" fill="#E9ECF4"/>
<path opacity="0.1" d="M306.719 315.471L333.125 251.922L369.688 344.458L338.203 277.565L306.719 315.471Z" fill="black"/>
<path opacity="0.1" d="M563.164 722.226C553.028 721.724 542.882 721.475 532.726 721.479L415.431 436.113L563.164 722.226Z" fill="black"/>
<path opacity="0.1" d="M471.667 351.402L500.703 326.62L632.734 493.853L498.672 351.147L471.667 351.402Z" fill="black"/>
<path opacity="0.1" d="M866.115 719.138C857.146 724.36 847.822 728.811 838.226 732.45L632.938 474.086L866.115 719.138Z" fill="black"/>
<path d="M489.531 117.021C491.214 117.021 492.578 115.523 492.578 113.676C492.578 111.829 491.214 110.331 489.531 110.331C487.849 110.331 486.484 111.829 486.484 113.676C486.484 115.523 487.849 117.021 489.531 117.021Z" fill="#E9ECF4"/>
<path d="M405.234 231.854C406.917 231.854 408.281 230.357 408.281 228.51C408.281 226.662 406.917 225.165 405.234 225.165C403.552 225.165 402.188 226.662 402.188 228.51C402.188 230.357 403.552 231.854 405.234 231.854Z" fill="#E9ECF4"/>
<path d="M611.406 250.807C612.528 250.807 613.438 249.809 613.438 248.577C613.438 247.346 612.528 246.348 611.406 246.348C610.284 246.348 609.375 247.346 609.375 248.577C609.375 249.809 610.284 250.807 611.406 250.807Z" fill="#E9ECF4"/>
<path d="M184.844 300.977C185.966 300.977 186.875 299.979 186.875 298.747C186.875 297.516 185.966 296.518 184.844 296.518C183.722 296.518 182.812 297.516 182.812 298.747C182.812 299.979 183.722 300.977 184.844 300.977Z" fill="#E9ECF4"/>
<path d="M623.594 112.561C624.716 112.561 625.625 111.563 625.625 110.331C625.625 109.1 624.716 108.102 623.594 108.102C622.472 108.102 621.562 109.1 621.562 110.331C621.562 111.563 622.472 112.561 623.594 112.561Z" fill="#E9ECF4"/>
<path d="M749.531 219.59C750.653 219.59 751.562 218.592 751.562 217.361C751.562 216.129 750.653 215.131 749.531 215.131C748.409 215.131 747.5 216.129 747.5 217.361C747.5 218.592 748.409 219.59 749.531 219.59Z" fill="#E9ECF4"/>
<path d="M873.438 389.053C874.559 389.053 875.469 388.055 875.469 386.823C875.469 385.592 874.559 384.594 873.438 384.594C872.316 384.594 871.406 385.592 871.406 386.823C871.406 388.055 872.316 389.053 873.438 389.053Z" fill="#E9ECF4"/>
<path d="M310.781 135.149H307.978V132.072H306.475V135.149H303.672V136.797H306.475V139.873H307.978V136.797H310.781V135.149Z" fill="#E9ECF4"/>
<path d="M861.25 472.96H858.447V469.883H856.944V472.96H854.141V474.607H856.944V477.683H858.447V474.607H861.25V472.96Z" fill="#E9ECF4"/>
<path d="M1105 684.498C1105 702.971 857.637 767 552.5 767C247.363 767 0 702.971 0 684.498C0 666.026 247.363 700.107 552.5 700.107C857.637 700.107 1105 666.027 1105 684.498Z" fill="#3F3D56"/>
<path opacity="0.1" d="M1105 684.498C1105 702.971 857.637 767 552.5 767C247.363 767 0 702.971 0 684.498C0 666.026 247.363 700.107 552.5 700.107C857.637 700.107 1105 666.027 1105 684.498Z" fill="black"/>
<path d="M552.5 717.945C857.637 717.945 1105 702.97 1105 684.498C1105 666.026 857.637 651.052 552.5 651.052C247.363 651.052 0 666.026 0 684.498C0 702.97 247.363 717.945 552.5 717.945Z" fill="#3F3D56"/>
<path d="M576.875 637.673C576.875 674.617 561.869 664.43 543.359 664.43C524.85 664.43 509.844 674.617 509.844 637.673C509.844 600.729 543.359 530.644 543.359 530.644C543.359 530.644 576.875 600.729 576.875 637.673Z" fill="#FF6584"/>
<path opacity="0.1" d="M558.594 651.809C558.594 668.601 551.773 663.971 543.359 663.971C534.946 663.971 528.125 668.601 528.125 651.809C528.125 635.016 543.359 603.16 543.359 603.16C543.359 603.16 558.594 635.019 558.594 651.809Z" fill="black"/>
<path d="M580.938 674.464H505.781C500.733 674.464 496.641 678.957 496.641 684.498C496.641 690.04 500.733 694.532 505.781 694.532H580.938C585.986 694.532 590.078 690.04 590.078 684.498C590.078 678.957 585.986 674.464 580.938 674.464Z" fill="#2F2E41"/>
<path d="M580.938 654.396H505.781C500.733 654.396 496.641 658.889 496.641 664.43C496.641 669.972 500.733 674.464 505.781 674.464H580.938C585.986 674.464 590.078 669.972 590.078 664.43C590.078 658.889 585.986 654.396 580.938 654.396Z" fill="#2F2E41"/>
<path d="M139.141 546.883C139.141 608.585 174.402 658.513 217.98 658.513L139.141 546.883Z" fill="#3F3D56"/>
<path d="M217.979 658.512C217.979 596.118 257.33 545.629 305.959 545.629L217.979 658.512Z" fill="#6C63FF"/>
<path d="M167.705 552.477C167.705 611.086 190.191 658.513 217.979 658.513L167.705 552.477Z" fill="#6C63FF"/>
<path d="M217.979 658.513C217.979 578.786 263.462 514.272 319.67 514.272L217.979 658.513Z" fill="#3F3D56"/>
<path d="M201.398 659.3C201.398 659.3 212.579 658.922 215.948 656.289C219.317 653.657 233.147 650.511 233.983 654.734C234.819 658.957 250.785 675.743 238.162 675.856C225.539 675.968 208.832 673.697 205.469 671.449C202.106 669.2 201.398 659.3 201.398 659.3Z" fill="#A8A8A8"/>
<path opacity="0.2" d="M238.383 674.384C225.76 674.496 209.053 672.226 205.69 669.977C203.129 668.265 202.108 662.119 201.767 659.284L201.393 659.3C201.393 659.3 202.104 669.199 205.465 671.452C208.826 673.705 225.535 675.971 238.158 675.859C241.802 675.827 243.06 674.404 242.991 672.291C242.485 673.565 241.095 674.36 238.383 674.384Z" fill="black"/>
<path d="M732.701 587.615C732.701 630.013 756.931 664.319 786.876 664.319L732.701 587.615Z" fill="#3F3D56"/>
<path d="M786.875 664.32C786.875 621.446 813.914 586.752 847.33 586.752L786.875 664.32Z" fill="#6C63FF"/>
<path d="M752.329 591.458C752.329 631.732 767.78 664.32 786.875 664.32L752.329 591.458Z" fill="#6C63FF"/>
<path d="M786.875 664.32C786.875 609.536 818.129 565.207 856.75 565.207L786.875 664.32Z" fill="#3F3D56"/>
<path d="M775.478 664.861C775.478 664.861 783.162 664.601 785.476 662.791C787.791 660.982 797.294 658.82 797.867 661.723C798.44 664.627 809.413 676.16 800.739 676.237C792.066 676.314 780.585 674.754 778.274 673.209C775.964 671.664 775.478 664.861 775.478 664.861Z" fill="#A8A8A8"/>
<path opacity="0.2" d="M800.895 675.226C792.222 675.303 780.741 673.743 778.431 672.198C776.671 671.021 775.97 666.798 775.735 664.851L775.478 664.862C775.478 664.862 775.965 671.663 778.276 673.209C780.588 674.755 792.068 676.314 800.741 676.237C803.245 676.215 804.11 675.234 804.062 673.784C803.714 674.663 802.759 675.209 800.895 675.226Z" fill="black"/>
<path d="M907.779 689.78C907.779 689.78 919.316 687.852 922.505 684.661C925.694 681.47 939.659 676.313 941.007 680.573C942.355 684.833 960.806 700.024 947.744 701.875C934.682 703.726 917.12 703.669 913.38 701.803C909.641 699.936 907.779 689.78 907.779 689.78Z" fill="#A8A8A8"/>
<path opacity="0.2" d="M947.81 700.321C934.749 702.17 917.186 702.115 913.446 700.248C910.602 698.827 908.84 692.603 908.165 689.713L907.78 689.781C907.78 689.781 909.642 699.936 913.382 701.803C917.123 703.669 934.685 703.726 947.746 701.875C951.516 701.341 952.657 699.694 952.345 697.52C951.965 698.909 950.616 699.924 947.81 700.321Z" fill="black"/>
<path d="M623.858 688.868C623.858 688.868 633.595 687.241 636.286 684.547C638.977 681.854 650.764 677.501 651.9 681.097C653.037 684.692 668.609 697.514 657.588 699.074C646.566 700.635 631.742 700.588 628.587 699.013C625.431 697.438 623.858 688.868 623.858 688.868Z" fill="#A8A8A8"/>
<path opacity="0.2" d="M657.642 697.759C646.619 699.32 631.796 699.273 628.64 697.698C626.236 696.498 624.754 691.245 624.182 688.805L623.857 688.862C623.857 688.862 625.428 697.432 628.585 699.008C631.741 700.583 646.561 700.631 657.586 699.069C660.768 698.623 661.73 697.228 661.467 695.39C661.149 696.568 660.01 697.424 657.642 697.759Z" fill="black"/>
<path d="M124.301 683.526C124.301 683.526 131.881 682.26 133.977 680.164C136.073 678.068 145.251 674.678 146.133 677.478C147.016 680.277 159.141 690.258 150.559 691.473C141.977 692.688 130.439 692.651 127.982 691.425C125.525 690.199 124.301 683.526 124.301 683.526Z" fill="#A8A8A8"/>
<path opacity="0.2" d="M150.602 690.452C142.021 691.667 130.481 691.63 128.025 690.404C126.154 689.47 124.999 685.38 124.554 683.482L124.301 683.526C124.301 683.526 125.52 690.198 127.982 691.425C130.444 692.653 141.978 692.688 150.559 691.473C153.036 691.122 153.786 690.04 153.582 688.612C153.332 689.524 152.445 690.191 150.602 690.452Z" fill="black"/>
<path opacity="0.1" d="M389.695 670.402C389.695 704.094 346.913 693.673 294.531 693.673C242.149 693.673 200.003 704.094 200.003 670.402C200.003 636.71 242.779 629.382 295.161 629.382C347.543 629.382 389.695 636.71 389.695 670.402Z" fill="black"/>
<path d="M389.695 662.11C389.695 695.802 346.913 685.381 294.531 685.381C242.149 685.381 200.003 695.802 200.003 662.11C200.003 628.418 242.775 621.082 295.157 621.082C347.539 621.082 389.695 628.414 389.695 662.11Z" fill="#3F3D56"/>
<path d="M572.375 495.528C579.486 495.528 586.306 498.217 591.334 503.005C596.363 507.792 599.188 514.285 599.188 521.056V648.694C599.188 655.465 596.363 661.958 591.334 666.745C586.306 671.533 579.486 674.222 572.375 674.222H250.625C243.514 674.222 236.694 671.533 231.666 666.745C226.637 661.958 223.812 655.465 223.812 648.694V521.056C223.812 514.285 226.637 507.792 231.666 503.005C236.694 498.217 243.514 495.528 250.625 495.528H572.375ZM250.625 470C236.403 470 222.763 475.379 212.706 484.954C202.65 494.529 197 507.515 197 521.056V648.694C197 662.235 202.65 675.221 212.706 684.796C222.763 694.371 236.403 699.75 250.625 699.75H572.375C586.597 699.75 600.237 694.371 610.294 684.796C620.35 675.221 626 662.235 626 648.694V521.056C626 507.515 620.35 494.529 610.294 484.954C600.237 475.379 586.597 470 572.375 470H250.625Z" fill="#939FBE"/>
<path d="M545.562 629.549C545.562 627.856 546.269 626.233 547.526 625.036C548.783 623.839 550.488 623.167 552.266 623.167H565.672C567.45 623.167 569.155 623.839 570.412 625.036C571.669 626.233 572.375 627.856 572.375 629.549V642.312C572.375 644.005 571.669 645.628 570.412 646.825C569.155 648.022 567.45 648.694 565.672 648.694H552.266C550.488 648.694 548.783 648.022 547.526 646.825C546.269 645.628 545.562 644.005 545.562 642.312V629.549ZM545.562 578.493C545.562 576.8 546.269 575.177 547.526 573.98C548.783 572.783 550.488 572.111 552.266 572.111H565.672C567.45 572.111 569.155 572.783 570.412 573.98C571.669 575.177 572.375 576.8 572.375 578.493V591.257C572.375 592.95 571.669 594.573 570.412 595.77C569.155 596.966 567.45 597.639 565.672 597.639H552.266C550.488 597.639 548.783 596.966 547.526 595.77C546.269 594.573 545.562 592.95 545.562 591.257V578.493ZM411.5 578.493C411.5 576.8 412.206 575.177 413.463 573.98C414.72 572.783 416.425 572.111 418.203 572.111H431.609C433.387 572.111 435.092 572.783 436.349 573.98C437.606 575.177 438.312 576.8 438.312 578.493V591.257C438.312 592.95 437.606 594.573 436.349 595.77C435.092 596.966 433.387 597.639 431.609 597.639H418.203C416.425 597.639 414.72 596.966 413.463 595.77C412.206 594.573 411.5 592.95 411.5 591.257V578.493ZM465.125 578.493C465.125 576.8 465.831 575.177 467.088 573.98C468.345 572.783 470.05 572.111 471.828 572.111H512.047C513.825 572.111 515.53 572.783 516.787 573.98C518.044 575.177 518.75 576.8 518.75 578.493V591.257C518.75 592.95 518.044 594.573 516.787 595.77C515.53 596.966 513.825 597.639 512.047 597.639H471.828C470.05 597.639 468.345 596.966 467.088 595.77C465.831 594.573 465.125 592.95 465.125 591.257V578.493ZM491.938 629.549C491.938 627.856 492.644 626.233 493.901 625.036C495.158 623.839 496.863 623.167 498.641 623.167H512.047C513.825 623.167 515.53 623.839 516.787 625.036C518.044 626.233 518.75 627.856 518.75 629.549V642.312C518.75 644.005 518.044 645.628 516.787 646.825C515.53 648.022 513.825 648.694 512.047 648.694H498.641C496.863 648.694 495.158 648.022 493.901 646.825C492.644 645.628 491.938 644.005 491.938 642.312V629.549ZM357.875 578.493C357.875 576.8 358.581 575.177 359.838 573.98C361.095 572.783 362.8 572.111 364.578 572.111H377.984C379.762 572.111 381.467 572.783 382.724 573.98C383.981 575.177 384.688 576.8 384.688 578.493V591.257C384.688 592.95 383.981 594.573 382.724 595.77C381.467 596.966 379.762 597.639 377.984 597.639H364.578C362.8 597.639 361.095 596.966 359.838 595.77C358.581 594.573 357.875 592.95 357.875 591.257V578.493ZM304.25 578.493C304.25 576.8 304.956 575.177 306.213 573.98C307.47 572.783 309.175 572.111 310.953 572.111H324.359C326.137 572.111 327.842 572.783 329.099 573.98C330.356 575.177 331.062 576.8 331.062 578.493V591.257C331.062 592.95 330.356 594.573 329.099 595.77C327.842 596.966 326.137 597.639 324.359 597.639H310.953C309.175 597.639 307.47 596.966 306.213 595.77C304.956 594.573 304.25 592.95 304.25 591.257V578.493ZM250.625 578.493C250.625 576.8 251.331 575.177 252.588 573.98C253.845 572.783 255.55 572.111 257.328 572.111H270.734C272.512 572.111 274.217 572.783 275.474 573.98C276.731 575.177 277.438 576.8 277.438 578.493V591.257C277.438 592.95 276.731 594.573 275.474 595.77C274.217 596.966 272.512 597.639 270.734 597.639H257.328C255.55 597.639 253.845 596.966 252.588 595.77C251.331 594.573 250.625 592.95 250.625 591.257V578.493ZM545.562 527.437C545.562 525.745 546.269 524.122 547.526 522.925C548.783 521.728 550.488 521.056 552.266 521.056H565.672C567.45 521.056 569.155 521.728 570.412 522.925C571.669 524.122 572.375 525.745 572.375 527.437V540.201C572.375 541.894 571.669 543.517 570.412 544.714C569.155 545.911 567.45 546.583 565.672 546.583H552.266C550.488 546.583 548.783 545.911 547.526 544.714C546.269 543.517 545.562 541.894 545.562 540.201V527.437ZM491.938 527.437C491.938 525.745 492.644 524.122 493.901 522.925C495.158 521.728 496.863 521.056 498.641 521.056H512.047C513.825 521.056 515.53 521.728 516.787 522.925C518.044 524.122 518.75 525.745 518.75 527.437V540.201C518.75 541.894 518.044 543.517 516.787 544.714C515.53 545.911 513.825 546.583 512.047 546.583H498.641C496.863 546.583 495.158 545.911 493.901 544.714C492.644 543.517 491.938 541.894 491.938 540.201V527.437ZM438.312 527.437C438.312 525.745 439.019 524.122 440.276 522.925C441.533 521.728 443.238 521.056 445.016 521.056H458.422C460.2 521.056 461.905 521.728 463.162 522.925C464.419 524.122 465.125 525.745 465.125 527.437V540.201C465.125 541.894 464.419 543.517 463.162 544.714C461.905 545.911 460.2 546.583 458.422 546.583H445.016C443.238 546.583 441.533 545.911 440.276 544.714C439.019 543.517 438.312 541.894 438.312 540.201V527.437ZM384.688 527.437C384.688 525.745 385.394 524.122 386.651 522.925C387.908 521.728 389.613 521.056 391.391 521.056H404.797C406.575 521.056 408.28 521.728 409.537 522.925C410.794 524.122 411.5 525.745 411.5 527.437V540.201C411.5 541.894 410.794 543.517 409.537 544.714C408.28 545.911 406.575 546.583 404.797 546.583H391.391C389.613 546.583 387.908 545.911 386.651 544.714C385.394 543.517 384.688 541.894 384.688 540.201V527.437ZM331.062 527.437C331.062 525.745 331.769 524.122 333.026 522.925C334.283 521.728 335.988 521.056 337.766 521.056H351.172C352.95 521.056 354.655 521.728 355.912 522.925C357.169 524.122 357.875 525.745 357.875 527.437V540.201C357.875 541.894 357.169 543.517 355.912 544.714C354.655 545.911 352.95 546.583 351.172 546.583H337.766C335.988 546.583 334.283 545.911 333.026 544.714C331.769 543.517 331.062 541.894 331.062 540.201V527.437ZM250.625 527.437C250.625 525.745 251.331 524.122 252.588 522.925C253.845 521.728 255.55 521.056 257.328 521.056H297.547C299.325 521.056 301.03 521.728 302.287 522.925C303.544 524.122 304.25 525.745 304.25 527.437V540.201C304.25 541.894 303.544 543.517 302.287 544.714C301.03 545.911 299.325 546.583 297.547 546.583H257.328C255.55 546.583 253.845 545.911 252.588 544.714C251.331 543.517 250.625 541.894 250.625 540.201V527.437ZM250.625 629.549C250.625 627.856 251.331 626.233 252.588 625.036C253.845 623.839 255.55 623.167 257.328 623.167H270.734C272.512 623.167 274.217 623.839 275.474 625.036C276.731 626.233 277.438 627.856 277.438 629.549V642.312C277.438 644.005 276.731 645.628 275.474 646.825C274.217 648.022 272.512 648.694 270.734 648.694H257.328C255.55 648.694 253.845 648.022 252.588 646.825C251.331 645.628 250.625 644.005 250.625 642.312V629.549ZM304.25 629.549C304.25 627.856 304.956 626.233 306.213 625.036C307.47 623.839 309.175 623.167 310.953 623.167H458.422C460.2 623.167 461.905 623.839 463.162 625.036C464.419 626.233 465.125 627.856 465.125 629.549V642.312C465.125 644.005 464.419 645.628 463.162 646.825C461.905 648.022 460.2 648.694 458.422 648.694H310.953C309.175 648.694 307.47 648.022 306.213 646.825C304.956 645.628 304.25 644.005 304.25 642.312V629.549Z" fill="#939FBE"/>
</g>
<defs>
<clipPath id="clip0">
<rect width="1105" height="767" fill="white"/>
</clipPath>
</defs>
</svg>
